<svg xmlns="http://www.w3.org/2000/svg" width="70.002" height="70" viewBox="0 0 70.002 70">
  <path id="github" d="M35,7.877c-19.326,0-35,16.065-35,35.881A35.82,35.82,0,0,0,23.934,77.805c1.75.332,2.394-.78,2.394-1.728,0-.856-.035-3.682-.049-6.678-9.738,2.171-11.79-4.235-11.79-4.235C12.9,61.015,10.6,59.912,10.6,59.912c-3.175-2.229.242-2.18.242-2.18,3.514.252,5.364,3.7,5.364,3.7,3.124,5.486,8.19,3.9,10.186,2.983a7.72,7.72,0,0,1,2.222-4.8c-7.774-.9-15.946-3.983-15.946-17.733a14.091,14.091,0,0,1,3.605-9.63,13.185,13.185,0,0,1,.337-9.5s2.939-.965,9.628,3.678a32.417,32.417,0,0,1,17.524,0c6.68-4.641,9.616-3.678,9.616-3.678a13.186,13.186,0,0,1,.345,9.495,14.051,14.051,0,0,1,3.6,9.63c0,13.782-8.19,16.812-15.981,17.7,1.256,1.112,2.377,3.3,2.377,6.642,0,4.8-.04,8.666-.04,9.846,0,.955.63,2.071,2.4,1.722A35.816,35.816,0,0,0,70,43.746C70,23.933,54.33,7.865,35,7.865Z" transform="translate(0.001 -7.865)" fill="#0077b5" fill-rule="evenodd"/>
</svg>
