<svg xmlns="http://www.w3.org/2000/svg" width="70" height="70" viewBox="0 0 70 70">
  <path id="linkedin-round-color" d="M35,0A35,35,0,1,1,0,35,35,35,0,0,1,35,0ZM31.174,29.166h6.068v3.111h.088a6.729,6.729,0,0,1,5.993-3.111c6.408,0,7.593,3.988,7.593,9.175V48.908H44.587V39.541c0-2.233-.046-5.108-3.291-5.108-3.3,0-3.8,2.431-3.8,4.945v9.53H31.174V29.166Zm-4.387-5.484A3.291,3.291,0,1,1,23.5,20.391,3.292,3.292,0,0,1,26.786,23.682ZM20.2,29.166h6.582V48.908H20.2Z" fill="#eee" fill-rule="evenodd"/>
</svg>
