<?xml version="1.0"?>
<svg xmlns="http://www.w3.org/2000/svg" xmlns:xlink="http://www.w3.org/1999/xlink" xmlns:svgjs="http://svgjs.com/svgjs" version="1.1" width="512" height="512" x="0" y="0" viewBox="0 0 508 508" style="enable-background:new 0 0 512 512" xml:space="preserve" class=""><g><g xmlns="http://www.w3.org/2000/svg"><path d="m488 54h-184c-11.028 0-20 8.972-20 20v52.001c-23.71 4.612-40 26.096-40 48.999v34.01c0 5.51 4.49 10 10 10s10-4.49 10-10v-34.01c.024-13.005 8.383-24.113 20-28.259v287.259c0 11.028 8.972 20 20 20h184c11.028 0 20-8.972 20-20v-360c0-11.028-8.972-20-20-20zm0 380h-184v-360h184l.013 359.999s-.004.001-.013.001zm-448-171c0-5.522 4.478-10 10-10h62c5.522 0 10 4.478 10 10s-4.478 10-10 10h-62c-5.522 0-10-4.478-10-10zm0 40c0-5.522 4.478-10 10-10h124c5.522 0 10 4.478 10 10s-4.478 10-10 10h-124c-5.522 0-10-4.478-10-10zm0-199c0-5.522 4.478-10 10-10h124c5.522 0 10 4.478 10 10s-4.478 10-10 10h-124c-5.522 0-10-4.478-10-10zm428 164c0 5.522-4.478 10-10 10h-124c-5.522 0-10-4.478-10-10s4.478-10 10-10h124c5.522 0 10 4.478 10 10zm0 40c0 5.522-4.478 10-10 10h-124c-5.522 0-10-4.478-10-10s4.478-10 10-10h124c5.522 0 10 4.478 10 10zm-62 40c0 5.522-4.478 10-10 10h-62c-5.522 0-10-4.478-10-10s4.478-10 10-10h62c5.522 0 10 4.478 10 10zm52-254h-124c-5.522 0-10 4.478-10 10v124c0 5.522 4.478 10 10 10h124c5.522 0 10-4.478 10-10v-124c0-5.522-4.478-10-10-10zm-10 124h-104v-104h104zm-184 36.01c0 5.51-4.49 10-10 10s-10-4.49-10-10c0-5.52 4.49-10 10-10s10 4.48 10 10zm-10 35c-5.51 0-10 4.48-10 10v33.99c-.024 13.005-8.383 24.112-20 28.259v-287.259c0-11.028-8.972-20-20-20h-184c-11.028 0-20 8.972-20 20v360c0 11.028 8.972 20 20 20h184c11.028 0 20-8.972 20-20v-51.998c21.968-4.228 40-24.002 40-49.002v-33.99c0-5.52-4.49-10-10-10zm-50 144.99h-184v-360h184l.01 289h-20.01c0-16.542-13.458-30-30-30h-84c-16.542 0-30 13.458-30 30v20c0 16.542 13.458 30 30 30h84c16.542 0 30-13.458 30-30h20.011l.002 50.999s-.004.001-.013.001zm-40-51c0 5.514-4.486 10-10 10h-84c-5.514 0-10-4.486-10-10v-20c0-5.514 4.486-10 10-10h84c5.514 0 10 4.486 10 10z" fill="#0077b5" data-original="#000000" style="" class=""/></g></g></svg>
